<?xml version="1.0" encoding="iso-8859-1"?>
<!-- Generator: Adobe Illustrator 19.0.0, SVG Export Plug-In . SVG Version: 6.00 Build 0)  -->
<svg version="1.1" id="Capa_1" xmlns="http://www.w3.org/2000/svg" xmlns:xlink="http://www.w3.org/1999/xlink" x="0px" y="0px"
	 viewBox="0 0 512.001 512.001" style="enable-background:new 0 0 512.001 512.001;" xml:space="preserve">
<path style="fill:#F95428;" d="M388.017,110.63c-3.24-22.022-8.156-44.185-15.006-65.485l10.654-2.915
	c3.268-0.894,4.029-5.184,1.268-7.148L347.204,8.254c-2.069-1.471-4.966-0.678-5.998,1.641l-18.818,42.297
	c-1.377,3.096,1.461,6.401,4.73,5.507l12.362-3.382c33.582,108.951-3.194,131.109-32.627,133.402
	c-15.662,1.22-29.028-11.204-29.028-26.914V55.769h7.491c3.389,0,5.255-3.937,3.109-6.56l-29.312-35.833
	c-1.607-1.965-4.611-1.965-6.218,0l-29.312,35.833c-2.146,2.623-0.279,6.56,3.109,6.56h7.491v105.038
	c0,15.71-13.366,28.134-29.028,26.914c-29.433-2.293-66.209-24.452-32.627-133.402l12.362,3.382c3.268,0.894,6.107-2.411,4.73-5.507
	L170.8,9.895c-1.032-2.319-3.929-3.112-5.998-1.641l-37.729,26.828c-2.762,1.964-2.001,6.254,1.268,7.148l10.654,2.915
	c-6.85,21.3-11.766,43.462-15.006,65.485c-4.896,33.278-9.163,73.242,14.546,100.77c23.526,27.314,60.903,35.426,95.878,37.71
	v235.828c0,10.802,8.757,19.558,19.558,19.558h4.064c10.802,0,19.558-8.756,19.558-19.558V249.295
	c30.355-1.948,61.849-9.101,85.117-27.615c3.889-3.094,7.517-6.515,10.761-10.282C397.18,183.872,392.913,143.907,388.017,110.63z"
	/>
<path style="fill:#E54728;" d="M196.757,213.604c-5.989-10.415-8.716-20.65-11.498-31.114
	c-22.424-11.247-38.833-43.492-12.734-128.187l12.36,3.385c3.268,0.895,6.108-2.41,4.731-5.507l-18.81-42.295
	c-1.032-2.319-3.929-3.112-5.998-1.641l-37.734,26.828c-2.762,1.964-2.001,6.254,1.268,7.148l10.654,2.915
	c-6.849,21.299-11.759,43.462-15.003,65.484c-4.901,33.279-8.742,72.885,14.541,100.772c22.226,26.621,61.421,35.634,95.879,37.872
	v233.642c0,11.924,6.838,22.095,21.59,21.59v-1.004v-263.49c0-2.882-2.427-5.157-5.305-4.997
	C238.593,235.675,209.032,234.951,196.757,213.604z"/>
<path d="M277.594,297.607c-4.145,0-7.505-3.36-7.505-7.505v-40.807c0-3.959,3.074-7.236,7.024-7.489
	c34.826-2.236,62.053-10.983,80.924-25.999c3.653-2.906,6.932-6.037,9.748-9.306c21.084-24.48,17.888-60.245,12.808-94.779
	c-3.328-22.618-8.282-44.244-14.726-64.28c-0.627-1.95-0.43-4.07,0.545-5.871s2.644-3.125,4.62-3.666l3.554-0.972L346.33,16.841
	l-14.093,31.677l5.263-1.44c3.904-1.066,7.959,1.156,9.153,5.029c17.432,56.554,18.159,97.162,2.161,120.697
	c-9.004,13.245-23.312,20.991-41.377,22.399c-9.521,0.738-19.015-2.558-26.037-9.054c-7.041-6.513-11.079-15.751-11.079-25.342
	V55.769c0-4.145,3.36-7.505,7.505-7.505h0.13l-21.952-26.835l-21.953,26.835h0.13c4.145,0,7.505,3.36,7.505,7.505v105.038
	c0,9.591-4.038,18.829-11.079,25.342c-7.022,6.496-16.515,9.792-26.037,9.054c-18.065-1.408-32.373-9.154-41.377-22.399
	c-15.998-23.534-15.271-64.142,2.161-120.697c1.194-3.873,5.248-6.095,9.153-5.029l5.263,1.44l-14.094-31.677l-28.255,20.092
	l3.554,0.972c1.975,0.54,3.645,1.865,4.62,3.666c0.975,1.801,1.172,3.922,0.545,5.871c-5.749,17.876-10.327,37.08-13.606,57.079
	c-0.671,4.091-4.534,6.86-8.621,6.192c-4.09-0.671-6.862-4.53-6.192-8.621c2.947-17.972,6.912-35.343,11.808-51.755l-3.169-0.867
	c-4.338-1.187-7.52-4.675-8.305-9.103s1.004-8.796,4.669-11.401l37.729-26.828c2.828-2.011,6.369-2.642,9.717-1.723
	c3.347,0.916,6.076,3.26,7.487,6.431l18.818,42.296c1.828,4.108,1.143,8.779-1.786,12.191c-2.929,3.411-7.442,4.792-11.781,3.607
	l-5.292-1.448c-13.814,47.67-14.527,82.459-2.009,100.875c6.442,9.476,16.579,14.817,30.129,15.872
	c5.449,0.432,10.659-1.39,14.678-5.107c4.038-3.736,6.262-8.823,6.262-14.324V63.274c-4.491-0.005-8.474-2.528-10.398-6.587
	c-1.926-4.063-1.353-8.749,1.494-12.23l29.313-35.833c2.198-2.685,5.448-4.226,8.918-4.226s6.72,1.541,8.918,4.226l29.313,35.833
	c2.847,3.481,3.419,8.167,1.494,12.23c-1.924,4.059-5.907,6.583-10.398,6.587v97.533c0,5.501,2.224,10.588,6.262,14.324
	c4.018,3.718,9.227,5.532,14.678,5.107c13.551-1.055,23.688-6.396,30.129-15.872c12.518-18.415,11.805-53.204-2.009-100.875
	l-5.292,1.448c-4.335,1.184-8.852-0.195-11.781-3.607c-2.93-3.411-3.614-8.083-1.786-12.191l18.818-42.297
	c1.411-3.17,4.139-5.514,7.487-6.43c3.347-0.92,6.889-0.288,9.717,1.723l37.729,26.828c3.664,2.605,5.453,6.973,4.668,11.401
	s-3.967,7.915-8.305,9.103l-3.169,0.867c5.573,18.677,9.928,38.552,12.965,59.201c5.341,36.304,8.928,77.486-16.284,106.76
	c-3.427,3.979-7.389,7.767-11.775,11.257c-19.984,15.901-47.64,25.539-82.284,28.688v33.86
	C285.099,294.247,281.738,297.607,277.594,297.607z"/>
<path d="M256.003,512.001c-16.043,0-29.096-13.053-29.096-29.096V256.062c-44.114-3.894-74.116-16.611-94.059-39.765
	c-12.884-14.958-19.469-34.367-20.132-59.334c-0.11-4.143,3.16-7.592,7.304-7.701c4.127-0.098,7.591,3.159,7.701,7.303
	c0.567,21.371,5.964,37.705,16.499,49.937c18.179,21.106,46.993,32.266,90.68,35.119c3.946,0.258,7.016,3.535,7.016,7.489v233.796
	c0,7.767,6.319,14.086,14.086,14.086c7.767,0,14.086-6.319,14.086-14.086v-139.33c0-4.145,3.36-7.505,7.505-7.505
	s7.505,3.36,7.505,7.505v139.33C285.099,498.948,272.046,512.001,256.003,512.001z"/>
<g>
</g>
<g>
</g>
<g>
</g>
<g>
</g>
<g>
</g>
<g>
</g>
<g>
</g>
<g>
</g>
<g>
</g>
<g>
</g>
<g>
</g>
<g>
</g>
<g>
</g>
<g>
</g>
<g>
</g>
</svg>
